<svg width="80" height="80" viewBox="0 0 80 80" fill="none" xmlns="http://www.w3.org/2000/svg">
<path d="M20.3895 35.5342C20.5316 35.5342 20.5316 35.5342 20.6737 35.5342C21.5263 35.5342 22.2368 34.9671 22.3789 33.9747C22.9474 29.8633 25.3632 26.1772 28.9158 24.0506L29.4842 25.3266C29.9105 26.1772 31.0474 26.1772 31.4737 25.3266L34.0316 20.6481C34.4579 19.9392 34.0316 19.2304 33.3211 18.9468L28.2053 17.8127C27.2105 17.6709 26.5 18.6633 26.9263 19.5139L27.4947 20.7899C22.8053 23.4835 19.6789 28.162 18.9684 33.5494C18.6842 34.5418 19.3947 35.3924 20.3895 35.5342ZM27.9211 38.2278C19.6789 38.2278 13 44.8911 13 53.1139C13 61.3367 19.6789 68 27.9211 68C36.1632 68 42.8421 61.3367 42.8421 53.1139C42.8421 44.8911 36.1632 38.2278 27.9211 38.2278ZM26.9263 50.2785L30.1947 51.9798C32.0421 52.9722 33.0368 54.957 32.7526 56.9418C32.4684 58.643 31.4737 59.919 29.9105 60.4861V61.0532C29.9105 62.0456 29.0579 62.8962 28.0632 62.8962C27.0684 62.8962 26.2158 62.0456 26.2158 61.0532V60.6278C24.6526 60.2025 23.2316 59.0684 22.6632 57.3671C22.2368 56.5165 22.6632 55.3823 23.5158 55.0987C24.3684 54.6734 25.5053 55.0987 25.7895 55.9494C26.2158 56.8 27.0684 57.3671 27.9211 57.2253H28.0632C28.7737 57.0835 28.9158 56.5165 28.9158 56.2329C28.9158 56.0911 29.0579 55.2405 28.3474 54.957L25.0789 53.2557C23.2316 52.2633 22.2368 50.2785 22.5211 48.1519C22.8053 46.3089 24.2263 44.8911 26.0737 44.4658V43.8987C26.0737 42.9063 26.9263 42.0557 27.9211 42.0557C28.9158 42.0557 29.7684 42.9063 29.7684 43.8987V44.7494C31.0474 45.3165 32.0421 46.3089 32.6105 47.7266C33.0368 48.5772 32.6105 49.7114 31.7579 49.9949C30.9053 50.4203 29.7684 49.9949 29.4842 49.1443C29.0579 48.2937 28.2053 47.7266 27.3526 47.8684C26.5 48.0101 26.3579 48.5772 26.3579 48.8608C26.2158 49.1443 26.2158 49.8532 26.9263 50.2785Z" fill="url(#paint0_linear_42_888)"/>
<path d="M52.0789 12C43.8368 12 37.1579 18.6633 37.1579 26.8861C37.1579 35.1089 43.8368 41.7722 52.0789 41.7722C60.3211 41.7722 67 35.1089 67 26.8861C67 18.6633 60.3211 12 52.0789 12ZM51.0842 24.0506L54.3526 25.7519C56.2 26.7443 57.1947 28.7291 56.9105 30.7139C56.6263 32.4152 55.6316 33.6911 54.0684 34.2582V34.8253C54.0684 35.8177 53.2158 36.6684 52.2211 36.6684C51.2263 36.6684 50.3737 35.8177 50.3737 34.8253V34.4C48.8105 33.9747 47.3895 32.8405 46.8211 31.1392C46.3947 30.2886 46.8211 29.1544 47.6737 28.8709C48.5263 28.4456 49.6632 28.8709 49.9474 29.7215C50.3737 30.5722 51.2263 31.1392 52.0789 30.9975H52.2211C52.9316 30.8557 53.0737 30.2886 53.0737 30.0051C53.0737 29.8633 53.2158 29.0127 52.5053 28.7291L49.2368 27.0279C47.3895 26.0354 46.3947 24.0506 46.679 21.9241C46.9632 20.081 48.3842 18.6633 50.2316 18.238V17.8127C50.2316 16.8203 51.0842 15.9696 52.0789 15.9696C53.0737 15.9696 53.9263 16.8203 53.9263 17.8127V18.6633C55.2053 19.2304 56.2 20.2228 56.7684 21.6405C57.1947 22.4911 56.7684 23.6253 55.9158 23.9089C55.0632 24.3342 53.9263 23.9089 53.6421 23.0582C53.2158 22.2076 52.3632 21.6405 51.5105 21.7823C50.6579 21.9241 50.5158 22.4911 50.5158 22.7747C50.3737 22.9165 50.3737 23.6253 51.0842 24.0506ZM60.3211 44.4658C59.3263 44.3241 58.4737 45.0329 58.3316 46.0253C57.7632 50.1367 55.2053 53.8228 51.7947 55.9494L51.0842 54.5316C50.6579 53.681 49.5211 53.681 49.0947 54.5316L46.679 59.2101C46.3947 59.919 46.6789 60.6279 47.5316 60.7696L52.7895 61.762C53.6421 61.9038 54.4947 61.0532 54.0684 60.2025L53.5 59.2101C58.0474 56.5165 61.3158 51.838 62.0263 46.5924C62.0263 45.4582 61.3158 44.6076 60.3211 44.4658Z" fill="url(#paint1_linear_42_888)"/>
<defs>
<linearGradient id="paint0_linear_42_888" x1="24.4229" y1="21.9564" x2="67.1834" y2="52.9516" gradientUnits="userSpaceOnUse">
<stop stop-color="#F15A29"/>
<stop offset="0.1875" stop-color="#EF6224"/>
<stop offset="0.645833" stop-color="#E87917"/>
<stop offset="1" stop-color="#E67F13"/>
</linearGradient>
<linearGradient id="paint1_linear_42_888" x1="24.4229" y1="21.9564" x2="67.1834" y2="52.9516" gradientUnits="userSpaceOnUse">
<stop stop-color="#F15A29"/>
<stop offset="0.1875" stop-color="#EF6224"/>
<stop offset="0.645833" stop-color="#E87917"/>
<stop offset="1" stop-color="#E67F13"/>
</linearGradient>
</defs>
</svg>
