<svg width="80" height="80" viewBox="0 0 80 80" fill="none" xmlns="http://www.w3.org/2000/svg">
<path fill-rule="evenodd" clip-rule="evenodd" d="M23.1507 23.8907H26.9315C27.9178 23.8907 28.9041 23.1635 28.9041 22.1453V15.6C28.9041 14.7273 28.0822 14 26.9315 14H23.1507C22.1644 14 21.1781 14.7273 21.1781 15.6V22.1453C21.1781 23.1635 22.1644 23.8907 23.1507 23.8907Z" fill="url(#paint0_linear_402_287)"/>
<path fill-rule="evenodd" clip-rule="evenodd" d="M62.4384 20.5453H60.6301V22.1453C60.6301 24.0362 58.9863 25.4907 56.8493 25.4907H53.0685C51.0959 25.6361 49.4521 24.1816 49.4521 22.2908V20.5453H30.5479V22.1453C30.5479 24.0362 28.9041 25.4907 26.7671 25.4907H23.1507C21.0137 25.6361 19.3699 24.1816 19.3699 22.2908V20.5453H17.3973C13.2877 20.5453 10 23.5998 10 27.2361V60.3991C10 64.0354 13.2877 66.9445 17.3973 66.9445H62.4384C66.5479 66.9445 70 64.0354 70 60.3991V27.2361C70 23.5998 66.7123 20.5453 62.4384 20.5453ZM66.2192 60.3991C66.2192 62.1445 64.5753 63.7445 62.4384 63.7445H17.3973C15.4247 63.7445 13.6164 62.29 13.6164 60.3991V33.9269C13.6164 32.1815 15.2603 30.5815 17.3973 30.5815C23.9726 30.5815 66.2192 27.527 66.2192 33.9269V60.3991Z" fill="url(#paint1_linear_402_287)"/>
<path fill-rule="evenodd" clip-rule="evenodd" d="M53.0685 23.8907H56.8493C57.8356 23.8907 58.6575 23.1635 58.6575 22.1453V15.6C58.6575 14.7273 57.8356 14 56.8493 14H53.0685C52.0822 14 51.2603 14.7273 51.2603 15.6V22.1453C51.2603 23.1635 52.0822 23.8907 53.0685 23.8907Z" fill="url(#paint2_linear_402_287)"/>
<path d="M26.3024 51.0699C25.5664 51.0699 24.9184 50.9259 24.3584 50.6379C23.8064 50.3499 23.3784 49.9579 23.0744 49.4619C22.7704 48.9579 22.6184 48.3859 22.6184 47.7459C22.6184 47.0979 22.7664 46.5259 23.0624 46.0299C23.3664 45.5259 23.7784 45.1339 24.2984 44.8539C24.8184 44.5659 25.4064 44.4219 26.0624 44.4219C26.6944 44.4219 27.2624 44.5579 27.7664 44.8299C28.2784 45.0939 28.6824 45.4779 28.9784 45.9819C29.2744 46.4779 29.4224 47.0739 29.4224 47.7699C29.4224 47.8419 29.4184 47.9259 29.4104 48.0219C29.4024 48.1099 29.3944 48.1939 29.3864 48.2739H24.1424V47.1819H28.4024L27.6824 47.5059C27.6824 47.1699 27.6144 46.8779 27.4784 46.6299C27.3424 46.3819 27.1544 46.1899 26.9144 46.0539C26.6744 45.9099 26.3944 45.8379 26.0744 45.8379C25.7544 45.8379 25.4704 45.9099 25.2224 46.0539C24.9824 46.1899 24.7944 46.3859 24.6584 46.6419C24.5224 46.8899 24.4544 47.1859 24.4544 47.5299V47.8179C24.4544 48.1699 24.5304 48.4819 24.6824 48.7539C24.8424 49.0179 25.0624 49.2219 25.3424 49.3659C25.6304 49.5019 25.9664 49.5699 26.3504 49.5699C26.6944 49.5699 26.9944 49.5179 27.2504 49.4139C27.5144 49.3099 27.7544 49.1539 27.9704 48.9459L28.9664 50.0259C28.6704 50.3619 28.2984 50.6219 27.8504 50.8059C27.4024 50.9819 26.8864 51.0699 26.3024 51.0699ZM32.3035 50.9739L29.5915 44.5179H31.5235L33.7795 50.0739H32.8195L35.1595 44.5179H36.9595L34.2355 50.9739H32.3035ZM40.7516 51.0699C40.0156 51.0699 39.3676 50.9259 38.8076 50.6379C38.2556 50.3499 37.8276 49.9579 37.5236 49.4619C37.2196 48.9579 37.0676 48.3859 37.0676 47.7459C37.0676 47.0979 37.2156 46.5259 37.5116 46.0299C37.8156 45.5259 38.2276 45.1339 38.7476 44.8539C39.2676 44.5659 39.8556 44.4219 40.5116 44.4219C41.1436 44.4219 41.7116 44.5579 42.2156 44.8299C42.7276 45.0939 43.1316 45.4779 43.4276 45.9819C43.7236 46.4779 43.8716 47.0739 43.8716 47.7699C43.8716 47.8419 43.8676 47.9259 43.8596 48.0219C43.8516 48.1099 43.8436 48.1939 43.8356 48.2739H38.5916V47.1819H42.8516L42.1316 47.5059C42.1316 47.1699 42.0636 46.8779 41.9276 46.6299C41.7916 46.3819 41.6036 46.1899 41.3636 46.0539C41.1236 45.9099 40.8436 45.8379 40.5236 45.8379C40.2036 45.8379 39.9196 45.9099 39.6716 46.0539C39.4316 46.1899 39.2436 46.3859 39.1076 46.6419C38.9716 46.8899 38.9036 47.1859 38.9036 47.5299V47.8179C38.9036 48.1699 38.9796 48.4819 39.1316 48.7539C39.2916 49.0179 39.5116 49.2219 39.7916 49.3659C40.0796 49.5019 40.4156 49.5699 40.7996 49.5699C41.1436 49.5699 41.4436 49.5179 41.6996 49.4139C41.9636 49.3099 42.2036 49.1539 42.4196 48.9459L43.4156 50.0259C43.1196 50.3619 42.7476 50.6219 42.2996 50.8059C41.8516 50.9819 41.3356 51.0699 40.7516 51.0699ZM49.0419 44.4219C49.5539 44.4219 50.0099 44.5259 50.4099 44.7339C50.8179 44.9339 51.1379 45.2459 51.3699 45.6699C51.6019 46.0859 51.7179 46.6219 51.7179 47.2779V50.9739H49.8459V47.5659C49.8459 47.0459 49.7299 46.6619 49.4979 46.4139C49.2739 46.1659 48.9539 46.0419 48.5379 46.0419C48.2419 46.0419 47.9739 46.1059 47.7339 46.2339C47.5019 46.3539 47.3179 46.5419 47.1819 46.7979C47.0539 47.0539 46.9899 47.3819 46.9899 47.7819V50.9739H45.1179V44.5179H46.9059V46.3059L46.5699 45.7659C46.8019 45.3339 47.1339 45.0019 47.5659 44.7699C47.9979 44.5379 48.4899 44.4219 49.0419 44.4219ZM56.0548 51.0699C55.2948 51.0699 54.7028 50.8779 54.2788 50.4939C53.8548 50.1019 53.6428 49.5219 53.6428 48.7539V43.0899H55.5148V48.7299C55.5148 49.0019 55.5868 49.2139 55.7308 49.3659C55.8748 49.5099 56.0708 49.5819 56.3188 49.5819C56.6148 49.5819 56.8668 49.5019 57.0748 49.3419L57.5788 50.6619C57.3868 50.7979 57.1548 50.9019 56.8828 50.9739C56.6188 51.0379 56.3428 51.0699 56.0548 51.0699ZM52.6468 46.1019V44.6619H57.1228V46.1019H52.6468Z" fill="url(#paint3_linear_402_287)"/>
<defs>
<linearGradient id="paint0_linear_402_287" x1="22.6921" y1="23.4131" x2="64.6898" y2="59.19" gradientUnits="userSpaceOnUse">
<stop stop-color="#F15A29"/>
<stop offset="0.1875" stop-color="#EF6224"/>
<stop offset="0.645833" stop-color="#E87917"/>
<stop offset="1" stop-color="#E67F13"/>
</linearGradient>
<linearGradient id="paint1_linear_402_287" x1="22.6921" y1="23.4131" x2="64.6898" y2="59.19" gradientUnits="userSpaceOnUse">
<stop stop-color="#F15A29"/>
<stop offset="0.1875" stop-color="#EF6224"/>
<stop offset="0.645833" stop-color="#E87917"/>
<stop offset="1" stop-color="#E67F13"/>
</linearGradient>
<linearGradient id="paint2_linear_402_287" x1="22.6921" y1="23.4131" x2="64.6898" y2="59.19" gradientUnits="userSpaceOnUse">
<stop stop-color="#F15A29"/>
<stop offset="0.1875" stop-color="#EF6224"/>
<stop offset="0.645833" stop-color="#E87917"/>
<stop offset="1" stop-color="#E67F13"/>
</linearGradient>
<linearGradient id="paint3_linear_402_287" x1="28.4614" y1="41.638" x2="38.0736" y2="60.9262" gradientUnits="userSpaceOnUse">
<stop stop-color="#F15A29"/>
<stop offset="0.1875" stop-color="#EF6224"/>
<stop offset="0.645833" stop-color="#E87917"/>
<stop offset="1" stop-color="#E67F13"/>
</linearGradient>
</defs>
</svg>
