<svg width="80" height="80" viewBox="0 0 80 80" fill="none" xmlns="http://www.w3.org/2000/svg">
<path d="M68.9069 33.7809H11.0931C9.22269 33.7809 7.69232 35.2902 7.69232 37.1351V65.6458C7.69232 67.4906 9.22269 69 11.0931 69H68.9069C70.7773 69 72.3077 67.4906 72.3077 65.6458V37.1351C72.3077 35.2902 70.7773 33.7809 68.9069 33.7809Z" fill="url(#paint0_linear_402_1532)"/>
<path d="M57.3441 26.945C57.6842 27.2804 58.1943 27.4481 58.7045 27.4481C59.3846 27.4481 59.8948 27.1127 60.4049 26.6096C61.085 25.771 60.915 24.4293 60.0648 23.5908L51.0526 16.7147C50.0324 15.8761 48.332 16.2115 47.8219 17.5532C47.4818 18.3918 47.6518 19.398 48.502 20.0689L57.3441 26.945Z" fill="url(#paint1_linear_402_1532)"/>
<path d="M21.2956 27.9513C21.8057 27.9513 22.1458 27.7835 22.6559 27.4481L32.3482 20.0689C33.1984 19.398 33.3684 18.3918 33.0284 17.5532C32.5182 16.3792 30.8178 16.0438 29.7976 16.7147L20.1053 24.2616C19.085 24.9325 18.915 26.2741 19.5952 27.1127C20.1053 27.6158 20.7854 27.9513 21.2956 27.9513Z" fill="url(#paint2_linear_402_1532)"/>
<path d="M40.3401 20.0689C43.4392 20.0689 45.9514 17.591 45.9514 14.5344C45.9514 11.4779 43.4392 9 40.3401 9C37.241 9 34.7288 11.4779 34.7288 14.5344C34.7288 17.591 37.241 20.0689 40.3401 20.0689Z" fill="url(#paint3_linear_402_1532)"/>
<path d="M22.8641 54.5575C22.1041 54.5575 21.5121 54.3655 21.0881 53.9815C20.6641 53.5895 20.4521 53.0095 20.4521 52.2415V46.5775H22.3241V52.2175C22.3241 52.4895 22.3961 52.7015 22.5401 52.8535C22.6841 52.9975 22.8801 53.0695 23.1281 53.0695C23.4241 53.0695 23.6761 52.9895 23.8841 52.8295L24.3881 54.1495C24.1961 54.2855 23.9641 54.3895 23.6921 54.4615C23.4281 54.5255 23.1521 54.5575 22.8641 54.5575ZM19.4561 49.5895V48.1495H23.9321V49.5895H19.4561ZM28.3117 54.5575C27.6237 54.5575 27.0117 54.4135 26.4757 54.1255C25.9477 53.8375 25.5277 53.4455 25.2157 52.9495C24.9117 52.4455 24.7597 51.8735 24.7597 51.2335C24.7597 50.5855 24.9117 50.0135 25.2157 49.5175C25.5277 49.0135 25.9477 48.6215 26.4757 48.3415C27.0117 48.0535 27.6237 47.9095 28.3117 47.9095C28.9917 47.9095 29.5997 48.0535 30.1357 48.3415C30.6717 48.6215 31.0917 49.0095 31.3957 49.5055C31.6997 50.0015 31.8517 50.5775 31.8517 51.2335C31.8517 51.8735 31.6997 52.4455 31.3957 52.9495C31.0917 53.4455 30.6717 53.8375 30.1357 54.1255C29.5997 54.4135 28.9917 54.5575 28.3117 54.5575ZM28.3117 53.0215C28.6237 53.0215 28.9037 52.9495 29.1517 52.8055C29.3997 52.6615 29.5957 52.4575 29.7397 52.1935C29.8837 51.9215 29.9557 51.6015 29.9557 51.2335C29.9557 50.8575 29.8837 50.5375 29.7397 50.2735C29.5957 50.0095 29.3997 49.8055 29.1517 49.6615C28.9037 49.5175 28.6237 49.4455 28.3117 49.4455C27.9997 49.4455 27.7197 49.5175 27.4717 49.6615C27.2237 49.8055 27.0237 50.0095 26.8717 50.2735C26.7277 50.5375 26.6557 50.8575 26.6557 51.2335C26.6557 51.6015 26.7277 51.9215 26.8717 52.1935C27.0237 52.4575 27.2237 52.6615 27.4717 52.8055C27.7197 52.9495 27.9997 53.0215 28.3117 53.0215ZM36.5015 54.4615V48.0055H38.2895V49.8295L38.0375 49.3015C38.2295 48.8455 38.5375 48.5015 38.9615 48.2695C39.3855 48.0295 39.9015 47.9095 40.5095 47.9095V49.6375C40.4295 49.6295 40.3575 49.6255 40.2935 49.6255C40.2295 49.6175 40.1615 49.6135 40.0895 49.6135C39.5775 49.6135 39.1615 49.7615 38.8415 50.0575C38.5295 50.3455 38.3735 50.7975 38.3735 51.4135V54.4615H36.5015ZM44.7797 54.5575C44.0437 54.5575 43.3957 54.4135 42.8357 54.1255C42.2837 53.8375 41.8557 53.4455 41.5517 52.9495C41.2477 52.4455 41.0957 51.8735 41.0957 51.2335C41.0957 50.5855 41.2437 50.0135 41.5397 49.5175C41.8437 49.0135 42.2557 48.6215 42.7757 48.3415C43.2957 48.0535 43.8837 47.9095 44.5397 47.9095C45.1717 47.9095 45.7397 48.0455 46.2437 48.3175C46.7557 48.5815 47.1597 48.9655 47.4557 49.4695C47.7517 49.9655 47.8997 50.5615 47.8997 51.2575C47.8997 51.3295 47.8957 51.4135 47.8877 51.5095C47.8797 51.5975 47.8717 51.6815 47.8637 51.7615H42.6197V50.6695H46.8797L46.1597 50.9935C46.1597 50.6575 46.0917 50.3655 45.9557 50.1175C45.8197 49.8695 45.6317 49.6775 45.3917 49.5415C45.1517 49.3975 44.8717 49.3255 44.5517 49.3255C44.2317 49.3255 43.9477 49.3975 43.6997 49.5415C43.4597 49.6775 43.2717 49.8735 43.1357 50.1295C42.9997 50.3775 42.9317 50.6735 42.9317 51.0175V51.3055C42.9317 51.6575 43.0077 51.9695 43.1597 52.2415C43.3197 52.5055 43.5397 52.7095 43.8197 52.8535C44.1077 52.9895 44.4437 53.0575 44.8277 53.0575C45.1717 53.0575 45.4717 53.0055 45.7277 52.9015C45.9917 52.7975 46.2317 52.6415 46.4477 52.4335L47.4437 53.5135C47.1477 53.8495 46.7757 54.1095 46.3277 54.2935C45.8797 54.4695 45.3637 54.5575 44.7797 54.5575ZM53.07 47.9095C53.582 47.9095 54.038 48.0135 54.438 48.2215C54.846 48.4215 55.166 48.7335 55.398 49.1575C55.63 49.5735 55.746 50.1095 55.746 50.7655V54.4615H53.874V51.0535C53.874 50.5335 53.758 50.1495 53.526 49.9015C53.302 49.6535 52.982 49.5295 52.566 49.5295C52.27 49.5295 52.002 49.5935 51.762 49.7215C51.53 49.8415 51.346 50.0295 51.21 50.2855C51.082 50.5415 51.018 50.8695 51.018 51.2695V54.4615H49.146V48.0055H50.934V49.7935L50.598 49.2535C50.83 48.8215 51.162 48.4895 51.594 48.2575C52.026 48.0255 52.518 47.9095 53.07 47.9095ZM60.0829 54.5575C59.3229 54.5575 58.7309 54.3655 58.3069 53.9815C57.8829 53.5895 57.6709 53.0095 57.6709 52.2415V46.5775H59.5429V52.2175C59.5429 52.4895 59.6149 52.7015 59.7589 52.8535C59.9029 52.9975 60.0989 53.0695 60.3469 53.0695C60.6429 53.0695 60.8949 52.9895 61.1029 52.8295L61.6069 54.1495C61.4149 54.2855 61.1829 54.3895 60.9109 54.4615C60.6469 54.5255 60.3709 54.5575 60.0829 54.5575ZM56.6749 49.5895V48.1495H61.1509V49.5895H56.6749Z" fill="white"/>
<defs>
<linearGradient id="paint0_linear_402_1532" x1="21.3608" y1="19.6676" x2="68.5115" y2="57.8373" gradientUnits="userSpaceOnUse">
<stop stop-color="#F15A29"/>
<stop offset="0.1875" stop-color="#EF6224"/>
<stop offset="0.645833" stop-color="#E87917"/>
<stop offset="1" stop-color="#E67F13"/>
</linearGradient>
<linearGradient id="paint1_linear_402_1532" x1="21.3608" y1="19.6676" x2="68.5115" y2="57.8373" gradientUnits="userSpaceOnUse">
<stop stop-color="#F15A29"/>
<stop offset="0.1875" stop-color="#EF6224"/>
<stop offset="0.645833" stop-color="#E87917"/>
<stop offset="1" stop-color="#E67F13"/>
</linearGradient>
<linearGradient id="paint2_linear_402_1532" x1="21.3608" y1="19.6676" x2="68.5115" y2="57.8373" gradientUnits="userSpaceOnUse">
<stop stop-color="#F15A29"/>
<stop offset="0.1875" stop-color="#EF6224"/>
<stop offset="0.645833" stop-color="#E87917"/>
<stop offset="1" stop-color="#E67F13"/>
</linearGradient>
<linearGradient id="paint3_linear_402_1532" x1="21.3608" y1="19.6676" x2="68.5115" y2="57.8373" gradientUnits="userSpaceOnUse">
<stop stop-color="#F15A29"/>
<stop offset="0.1875" stop-color="#EF6224"/>
<stop offset="0.645833" stop-color="#E87917"/>
<stop offset="1" stop-color="#E67F13"/>
</linearGradient>
</defs>
</svg>
