<svg width="52" height="52" viewBox="0 0 52 52" fill="none" xmlns="http://www.w3.org/2000/svg">
<circle cx="26.0001" cy="26.0001" r="19.2222" stroke="#231F20" stroke-width="2"/>
<g clip-path="url(#clip0_405_1312)">
<path d="M27.1138 20.452C29.4652 20.452 31.3216 19.0933 31.3216 17.3722C31.3216 15.6512 29.4652 14.2925 27.1138 14.2925C24.7624 14.2925 22.906 15.6512 22.906 17.3722C22.906 19.0933 24.7624 20.452 27.1138 20.452ZM31.1979 26.7021C31.9404 24.5281 29.589 22.4448 26.495 22.4448H22.906C22.1634 22.4448 21.6684 22.8071 21.6684 23.3506C21.6684 23.5317 21.7922 23.7129 21.9159 23.8941C22.5347 24.347 22.906 24.981 22.6585 25.6151L20.8021 31.2311C20.0595 33.4051 22.411 35.579 25.5049 35.579H29.0939C29.8365 35.579 30.3315 35.2167 30.3315 34.6732C30.3315 34.4921 30.2078 34.3109 30.084 34.1297C29.4652 33.6768 29.0939 33.0428 29.3415 32.4087L31.1979 26.7021Z" fill="#231F20"/>
</g>
<defs>
<clipPath id="clip0_405_1312">
<rect width="10.6433" height="21.2866" fill="white" transform="translate(20.6783 14.2925)"/>
</clipPath>
</defs>
</svg>
