<svg width="52" height="52" viewBox="0 0 52 52" fill="none" xmlns="http://www.w3.org/2000/svg">
<circle cx="26.0001" cy="26.0001" r="19.2222" stroke="#231F20" stroke-width="2"/>
<g clip-path="url(#clip0_405_1359)">
<path d="M29.6109 25.1333L25.5665 22.9667C24.6998 22.5333 24.6998 21.5222 24.6998 21.3778C24.6998 21.0889 24.9887 20.2222 25.9998 20.2222C27.2998 20.0778 28.3109 20.6556 28.8887 21.8111C29.322 22.9667 30.622 23.4 31.7776 22.9667C32.9332 22.5333 33.3665 21.2333 32.9332 20.0778C32.2109 18.4889 30.9109 17.3333 29.4665 16.6111V15.1667C29.4665 14.0111 28.5998 13 27.2998 13C25.9998 13 25.1332 14.0111 25.1332 15.1667V15.8889C22.822 16.3222 20.9443 18.0556 20.5109 20.5111C20.0776 23.1111 21.2332 25.7111 23.5443 26.8667L27.5887 28.8889C28.3109 29.3222 28.4554 30.0444 28.4554 30.4778C28.4554 30.7667 28.1665 31.4889 27.2998 31.6333H27.1554C25.9998 31.7778 24.8443 31.0556 24.4109 30.0444C23.9776 28.8889 22.6776 28.4556 21.522 28.8889C20.3665 29.3222 19.9332 30.6222 20.3665 31.7778C21.2332 33.8 23.1109 35.2444 25.1332 35.8222V36.8333C25.1332 37.9889 26.1443 39 27.2998 39C28.4554 39 29.4665 37.9889 29.4665 36.8333V35.5333C31.1998 34.8111 32.3554 33.2222 32.6443 31.2C33.222 28.7444 31.922 26.2889 29.6109 25.1333Z" fill="#231F20"/>
</g>
<defs>
<clipPath id="clip0_405_1359">
<rect width="12.7111" height="26" fill="white" transform="translate(20.2222 13)"/>
</clipPath>
</defs>
</svg>
