<svg width="52" height="52" viewBox="0 0 52 52" fill="none" xmlns="http://www.w3.org/2000/svg">
<path fill-rule="evenodd" clip-rule="evenodd" d="M16.5814 12.5239H18.8569C19.4505 12.5239 20.0441 12.0278 20.0441 11.3334V6.8691C20.0441 6.27386 19.5494 5.77783 18.8569 5.77783H16.5814C15.9878 5.77783 15.3942 6.27386 15.3942 6.8691V11.3334C15.3942 12.0278 15.9878 12.5239 16.5814 12.5239Z" fill="#231F20"/>
<path fill-rule="evenodd" clip-rule="evenodd" d="M40.2267 10.2421H39.1385V11.3334C39.1385 12.6231 38.1491 13.6151 36.863 13.6151H34.5875C33.4003 13.7143 32.4109 12.7223 32.4109 11.4326V10.2421H21.0334V11.3334C21.0334 12.6231 20.0441 13.6151 18.7579 13.6151H16.5814C15.2952 13.7143 14.3059 12.7223 14.3059 11.4326V10.2421H13.1187C10.6453 10.2421 8.66663 12.3255 8.66663 14.8056V37.4247C8.66663 39.9048 10.6453 41.8889 13.1187 41.8889H40.2267C42.7001 41.8889 44.7777 39.9048 44.7777 37.4247V14.8056C44.7777 12.3255 42.799 10.2421 40.2267 10.2421ZM42.5022 37.4247C42.5022 38.6151 41.5129 39.7064 40.2267 39.7064H13.1187C11.9315 39.7064 10.8432 38.7143 10.8432 37.4247V19.3691C10.8432 18.1786 11.8325 17.0874 13.1187 17.0874C17.0761 17.0874 42.5022 15.004 42.5022 19.3691V37.4247Z" fill="#231F20"/>
<path fill-rule="evenodd" clip-rule="evenodd" d="M34.5875 12.5239H36.863C37.4566 12.5239 37.9513 12.0278 37.9513 11.3334V6.8691C37.9513 6.27386 37.4566 5.77783 36.863 5.77783H34.5875C33.9939 5.77783 33.4992 6.27386 33.4992 6.8691V11.3334C33.4992 12.0278 33.9939 12.5239 34.5875 12.5239Z" fill="#231F20"/>
<path d="M25.1577 30.9305L23.666 25.0018V31.4257C23.666 31.7811 23.5856 32.0477 23.4248 32.2255C23.2682 32.4032 23.0588 32.4921 22.7964 32.4921C22.5425 32.4921 22.3351 32.4053 22.1743 32.2318C22.0135 32.0541 21.9331 31.7854 21.9331 31.4257V24.0624C21.9331 23.6561 22.0389 23.3832 22.2505 23.2435C22.4621 23.0997 22.7477 23.0277 23.1074 23.0277H23.6914C24.0426 23.0277 24.2965 23.0594 24.4531 23.1229C24.6139 23.1864 24.7324 23.3007 24.8086 23.4657C24.8848 23.6307 24.9715 23.8995 25.0688 24.2719L26.4209 29.369L27.7729 24.2719C27.8703 23.8995 27.957 23.6307 28.0332 23.4657C28.1094 23.3007 28.2257 23.1864 28.3823 23.1229C28.5431 23.0594 28.7992 23.0277 29.1504 23.0277H29.7344C30.0941 23.0277 30.3797 23.0997 30.5913 23.2435C30.8029 23.3832 30.9087 23.6561 30.9087 24.0624V31.4257C30.9087 31.7811 30.8283 32.0477 30.6675 32.2255C30.5109 32.4032 30.2993 32.4921 30.0327 32.4921C29.783 32.4921 29.5778 32.4032 29.417 32.2255C29.2562 32.0477 29.1758 31.7811 29.1758 31.4257V25.0018L27.6841 30.9305C27.5868 31.3156 27.5063 31.5992 27.4429 31.7811C27.3836 31.9589 27.2715 32.1218 27.1064 32.2699C26.9414 32.418 26.7129 32.4921 26.4209 32.4921C26.2008 32.4921 26.0146 32.4434 25.8623 32.3461C25.71 32.253 25.5915 32.1324 25.5068 31.9843C25.4222 31.8361 25.3545 31.6732 25.3037 31.4955C25.2572 31.3135 25.2085 31.1252 25.1577 30.9305Z" fill="#231F20"/>
<path d="M25.1577 30.9305L24.6728 31.0525L24.6739 31.0568L25.1577 30.9305ZM23.666 25.0018L24.1509 24.8798L23.166 25.0018H23.666ZM23.4248 32.2255L23.054 31.89L23.0496 31.8949L23.4248 32.2255ZM22.1743 32.2318L21.8035 32.5673L21.8076 32.5717L22.1743 32.2318ZM22.2505 23.2435L22.5259 23.6609L22.5316 23.657L22.2505 23.2435ZM24.4531 23.1229L24.2653 23.5863L24.2695 23.588L24.4531 23.1229ZM25.0688 24.2719L24.5851 24.3983L24.5856 24.4L25.0688 24.2719ZM26.4209 29.369L25.9376 29.4972L26.4209 31.3192L26.9042 29.4972L26.4209 29.369ZM27.7729 24.2719L28.2562 24.4L28.2567 24.3983L27.7729 24.2719ZM28.3823 23.1229L28.1987 22.6578L28.1945 22.6596L28.3823 23.1229ZM30.5913 23.2435L30.3101 23.657L30.3159 23.6608L30.5913 23.2435ZM30.6675 32.2255L30.2967 31.89L30.2923 31.8949L30.6675 32.2255ZM29.1758 25.0018H29.6758L28.6909 24.8798L29.1758 25.0018ZM27.6841 30.9305L28.1688 31.0531L28.169 31.0525L27.6841 30.9305ZM27.4429 31.7811L26.9707 31.6164L26.9685 31.623L27.4429 31.7811ZM25.8623 32.3461L26.1316 31.9246L26.123 31.9194L25.8623 32.3461ZM25.3037 31.4955L24.8191 31.6194L24.8229 31.6328L25.3037 31.4955ZM25.6426 30.8085L24.1509 24.8798L23.1811 25.1238L24.6728 31.0525L25.6426 30.8085ZM23.166 25.0018V31.4257H24.166V25.0018H23.166ZM23.166 31.4257C23.166 31.7157 23.0993 31.84 23.054 31.89L23.7956 32.5609C24.0719 32.2555 24.166 31.8465 24.166 31.4257H23.166ZM23.0496 31.8949C22.9988 31.9526 22.9325 31.9921 22.7964 31.9921V32.9921C23.185 32.9921 23.5376 32.8538 23.8 32.556L23.0496 31.8949ZM22.7964 31.9921C22.6702 31.9921 22.5997 31.9552 22.541 31.8919L21.8076 32.5717C22.0705 32.8554 22.4147 32.9921 22.7964 32.9921V31.9921ZM22.5451 31.8964C22.5006 31.8472 22.4331 31.7218 22.4331 31.4257H21.4331C21.4331 31.8489 21.5264 32.2609 21.8035 32.5673L22.5451 31.8964ZM22.4331 31.4257V24.0624H21.4331V31.4257H22.4331ZM22.4331 24.0624C22.4331 23.7197 22.5236 23.6623 22.5259 23.6608L21.9751 22.8262C21.5542 23.104 21.4331 23.5925 21.4331 24.0624H22.4331ZM22.5316 23.657C22.6329 23.5881 22.8088 23.5277 23.1074 23.5277V22.5277C22.6867 22.5277 22.2912 22.6112 21.9693 22.8301L22.5316 23.657ZM23.1074 23.5277H23.6914V22.5277H23.1074V23.5277ZM23.6914 23.5277C24.0327 23.5277 24.2038 23.5614 24.2653 23.5863L24.641 22.6596C24.3893 22.5575 24.0526 22.5277 23.6914 22.5277V23.5277ZM24.2695 23.588C24.3041 23.6016 24.3293 23.6204 24.3546 23.6752L25.2626 23.2562C25.1356 22.981 24.9238 22.7712 24.6367 22.6578L24.2695 23.588ZM24.3546 23.6752C24.4111 23.7977 24.4889 24.0302 24.5851 24.3983L25.5526 24.1454C25.4541 23.7687 25.3584 23.4638 25.2626 23.2562L24.3546 23.6752ZM24.5856 24.4L25.9376 29.4972L26.9042 29.2408L25.5521 24.1437L24.5856 24.4ZM26.9042 29.4972L28.2562 24.4L27.2897 24.1437L25.9376 29.2408L26.9042 29.4972ZM28.2567 24.3983C28.3529 24.0302 28.4307 23.7977 28.4872 23.6752L27.5792 23.2562C27.4834 23.4638 27.3876 23.7687 27.2892 24.1454L28.2567 24.3983ZM28.4872 23.6752C28.5145 23.616 28.5408 23.5982 28.5702 23.5863L28.1945 22.6596C27.9107 22.7746 27.7042 22.9854 27.5792 23.2562L28.4872 23.6752ZM28.5659 23.588C28.6344 23.561 28.8107 23.5277 29.1504 23.5277V22.5277C28.7876 22.5277 28.4518 22.5579 28.1987 22.6578L28.5659 23.588ZM29.1504 23.5277H29.7344V22.5277H29.1504V23.5277ZM29.7344 23.5277C30.033 23.5277 30.2089 23.5881 30.3102 23.657L30.8725 22.8301C30.5506 22.6112 30.1551 22.5277 29.7344 22.5277V23.5277ZM30.3159 23.6608C30.3182 23.6623 30.4087 23.7197 30.4087 24.0624H31.4087C31.4087 23.5925 31.2876 23.104 30.8667 22.8262L30.3159 23.6608ZM30.4087 24.0624V31.4257H31.4087V24.0624H30.4087ZM30.4087 31.4257C30.4087 31.7157 30.342 31.84 30.2967 31.89L31.0382 32.5609C31.3146 32.2555 31.4087 31.8465 31.4087 31.4257H30.4087ZM30.2923 31.8949C30.2432 31.9507 30.1758 31.9921 30.0327 31.9921V32.9921C30.4228 32.9921 30.7786 32.8557 31.0427 32.556L30.2923 31.8949ZM30.0327 31.9921C29.9177 31.9921 29.8494 31.9581 29.7878 31.89L29.0462 32.5609C29.3062 32.8483 29.6484 32.9921 30.0327 32.9921V31.9921ZM29.7878 31.89C29.7425 31.84 29.6758 31.7157 29.6758 31.4257H28.6758C28.6758 31.8465 28.7699 32.2555 29.0462 32.5609L29.7878 31.89ZM29.6758 31.4257V25.0018H28.6758V31.4257H29.6758ZM28.6909 24.8798L27.1992 30.8085L28.169 31.0525L29.6607 25.1238L28.6909 24.8798ZM27.1993 30.808C27.1027 31.1905 27.0266 31.4563 26.9708 31.6164L27.915 31.9458C27.9861 31.742 28.0708 31.4408 28.1688 31.0531L27.1993 30.808ZM26.9685 31.623C26.9414 31.7045 26.8849 31.7969 26.7725 31.8978L27.4404 32.642C27.6581 32.4466 27.8259 32.2132 27.9172 31.9392L26.9685 31.623ZM26.7725 31.8978C26.7251 31.9403 26.6295 31.9921 26.4209 31.9921V32.9921C26.7963 32.9921 27.1577 32.8957 27.4404 32.642L26.7725 31.8978ZM26.4209 31.9921C26.2754 31.9921 26.1875 31.9605 26.1315 31.9247L25.5931 32.7674C25.8418 32.9263 26.1263 32.9921 26.4209 32.9921V31.9921ZM26.123 31.9194C26.0391 31.8682 25.9818 31.8076 25.941 31.7362L25.0727 32.2323C25.2011 32.4571 25.3808 32.6378 25.6016 32.7727L26.123 31.9194ZM25.941 31.7362C25.8778 31.6257 25.8251 31.5004 25.7845 31.3581L24.8229 31.6328C24.8839 31.846 24.9666 32.0465 25.0727 32.2323L25.941 31.7362ZM25.7881 31.3716C25.7414 31.1888 25.6925 30.9997 25.6415 30.8043L24.6739 31.0568C24.7245 31.2507 24.773 31.4383 24.8193 31.6194L25.7881 31.3716Z" fill="#231F20"/>
</svg>
