<svg width="52" height="52" viewBox="0 0 52 52" fill="none" xmlns="http://www.w3.org/2000/svg">
<path fill-rule="evenodd" clip-rule="evenodd" d="M16.5814 12.5239H18.8569C19.4505 12.5239 20.0441 12.0278 20.0441 11.3334V6.8691C20.0441 6.27386 19.5494 5.77783 18.8569 5.77783H16.5814C15.9878 5.77783 15.3942 6.27386 15.3942 6.8691V11.3334C15.3942 12.0278 15.9878 12.5239 16.5814 12.5239Z" fill="#231F20"/>
<path fill-rule="evenodd" clip-rule="evenodd" d="M40.2267 10.2421H39.1385V11.3334C39.1385 12.6231 38.1491 13.6151 36.863 13.6151H34.5875C33.4003 13.7143 32.4109 12.7223 32.4109 11.4326V10.2421H21.0334V11.3334C21.0334 12.6231 20.0441 13.6151 18.7579 13.6151H16.5814C15.2952 13.7143 14.3059 12.7223 14.3059 11.4326V10.2421H13.1187C10.6453 10.2421 8.66663 12.3255 8.66663 14.8056V37.4247C8.66663 39.9048 10.6453 41.8889 13.1187 41.8889H40.2267C42.7001 41.8889 44.7777 39.9048 44.7777 37.4247V14.8056C44.7777 12.3255 42.799 10.2421 40.2267 10.2421ZM42.5022 37.4247C42.5022 38.6151 41.5129 39.7064 40.2267 39.7064H13.1187C11.9315 39.7064 10.8432 38.7143 10.8432 37.4247V19.3691C10.8432 18.1786 11.8325 17.0874 13.1187 17.0874C17.0761 17.0874 42.5022 15.004 42.5022 19.3691V37.4247Z" fill="#231F20"/>
<path fill-rule="evenodd" clip-rule="evenodd" d="M34.5875 12.5239H36.863C37.4566 12.5239 37.9513 12.0278 37.9513 11.3334V6.8691C37.9513 6.27386 37.4566 5.77783 36.863 5.77783H34.5875C33.9939 5.77783 33.4992 6.27386 33.4992 6.8691V11.3334C33.4992 12.0278 33.9939 12.5239 34.5875 12.5239Z" fill="#231F20"/>
<path d="M26.0913 31.0098V28.0581L23.8188 24.5352C23.62 24.2178 23.4782 23.9702 23.3936 23.7925C23.3132 23.6147 23.2729 23.4603 23.2729 23.3291C23.2729 23.1133 23.3555 22.9271 23.5205 22.7705C23.6898 22.6139 23.8971 22.5356 24.1426 22.5356C24.4007 22.5356 24.5954 22.6097 24.7266 22.7578C24.862 22.9017 25.063 23.1916 25.3296 23.6274L27.0688 26.4521L28.8271 23.6274C28.9329 23.4539 29.0218 23.3079 29.0938 23.1895C29.1657 23.071 29.244 22.9609 29.3286 22.8594C29.4175 22.7536 29.5148 22.6732 29.6206 22.6182C29.7264 22.5632 29.8555 22.5356 30.0078 22.5356C30.2448 22.5356 30.4416 22.6139 30.5981 22.7705C30.759 22.9229 30.8394 23.1006 30.8394 23.3037C30.8394 23.4688 30.7992 23.6338 30.7188 23.7988C30.6383 23.9639 30.5008 24.1924 30.3062 24.4844L27.9766 28.0581V31.0098C27.9766 31.3949 27.8877 31.6826 27.71 31.873C27.5322 32.0635 27.3058 32.1587 27.0308 32.1587C26.7515 32.1587 26.5251 32.0656 26.3516 31.8794C26.1781 31.689 26.0913 31.3991 26.0913 31.0098Z" fill="#231F20"/>
<path d="M26.0913 28.0581H26.5913V27.9108L26.5115 27.7871L26.0913 28.0581ZM23.8188 24.5352L23.3951 24.8007L23.3987 24.8062L23.8188 24.5352ZM23.3936 23.7925L22.9379 23.9986L22.9421 24.0074L23.3936 23.7925ZM23.5205 22.7705L23.181 22.4034L23.1764 22.4078L23.5205 22.7705ZM24.7266 22.7578L24.3523 23.0893L24.3573 23.095L24.3625 23.1005L24.7266 22.7578ZM25.3296 23.6274L24.903 23.8883L24.9038 23.8896L25.3296 23.6274ZM27.0688 26.4521L26.6431 26.7143L27.0665 27.402L27.4933 26.7164L27.0688 26.4521ZM28.8271 23.6274L29.2516 23.8917L29.254 23.8877L28.8271 23.6274ZM29.3286 22.8594L28.9458 22.5378L28.9445 22.5393L29.3286 22.8594ZM30.5981 22.7705L30.2445 23.1242L30.2543 23.1335L30.5981 22.7705ZM30.3062 24.4844L29.8901 24.207L29.8873 24.2113L30.3062 24.4844ZM27.9766 28.0581L27.5577 27.7851L27.4766 27.9095V28.0581H27.9766ZM26.3516 31.8794L25.9819 32.2162L25.9858 32.2203L26.3516 31.8794ZM26.5913 31.0098V28.0581H25.5913V31.0098H26.5913ZM26.5115 27.7871L24.239 24.2641L23.3987 24.8062L25.6711 28.3291L26.5115 27.7871ZM24.2425 24.2696C24.0465 23.9568 23.917 23.7287 23.845 23.5775L22.9421 24.0074C23.0394 24.2117 23.1934 24.4787 23.3952 24.8007L24.2425 24.2696ZM23.8491 23.5864C23.785 23.4446 23.7729 23.3633 23.7729 23.3291H22.7729C22.7729 23.5573 22.8413 23.7849 22.938 23.9986L23.8491 23.5864ZM23.7729 23.3291C23.7729 23.2586 23.7931 23.2011 23.8646 23.1332L23.1764 22.4078C22.9179 22.653 22.7729 22.968 22.7729 23.3291H23.7729ZM23.86 23.1376C23.9306 23.0723 24.0141 23.0356 24.1426 23.0356V22.0356C23.7801 22.0356 23.449 22.1556 23.181 22.4035L23.86 23.1376ZM24.1426 23.0356C24.3039 23.0356 24.3429 23.0787 24.3523 23.0893L25.1009 22.4263C24.8479 22.1407 24.4975 22.0356 24.1426 22.0356V23.0356ZM24.3625 23.1005C24.458 23.202 24.6349 23.4499 24.9031 23.8883L25.7561 23.3665C25.4911 22.9332 25.266 22.6014 25.0907 22.4151L24.3625 23.1005ZM24.9038 23.8896L26.6431 26.7143L27.4946 26.19L25.7554 23.3653L24.9038 23.8896ZM27.4933 26.7164L29.2516 23.8917L28.4027 23.3632L26.6444 26.1879L27.4933 26.7164ZM29.254 23.8877C29.3599 23.7141 29.449 23.5678 29.5211 23.4489L28.6664 22.93C28.5946 23.0481 28.5059 23.1938 28.4003 23.3671L29.254 23.8877ZM29.5211 23.4489C29.5808 23.3507 29.6448 23.261 29.7127 23.1795L28.9445 22.5393C28.8432 22.6608 28.7506 22.7912 28.6664 22.93L29.5211 23.4489ZM29.7115 23.181C29.7647 23.1176 29.8122 23.0821 29.8513 23.0618L29.3899 22.1746C29.2174 22.2643 29.0702 22.3896 28.9458 22.5378L29.7115 23.181ZM29.8513 23.0618C29.8688 23.0527 29.9141 23.0356 30.0078 23.0356V22.0356C29.7968 22.0356 29.584 22.0736 29.3899 22.1746L29.8513 23.0618ZM30.0078 23.0356C30.1225 23.0356 30.1888 23.0683 30.2446 23.1241L30.9517 22.417C30.6943 22.1596 30.3671 22.0356 30.0078 22.0356V23.0356ZM30.2543 23.1335C30.3254 23.2009 30.3394 23.2511 30.3394 23.3037H31.3394C31.3394 22.9501 31.1925 22.6448 30.942 22.4075L30.2543 23.1335ZM30.3394 23.3037C30.3394 23.3847 30.3202 23.4753 30.2693 23.5798L31.1682 24.0178C31.2781 23.7923 31.3394 23.5528 31.3394 23.3037H30.3394ZM30.2693 23.5798C30.2039 23.714 30.0814 23.9201 29.8901 24.207L30.7222 24.7617C30.9202 24.4646 31.0728 24.2137 31.1682 24.0178L30.2693 23.5798ZM29.8873 24.2113L27.5577 27.7851L28.3954 28.3311L30.725 24.7574L29.8873 24.2113ZM27.4766 28.0581V31.0098H28.4766V28.0581H27.4766ZM27.4766 31.0098C27.4766 31.3278 27.4022 31.47 27.3444 31.5319L28.0755 32.2142C28.3732 31.8953 28.4766 31.4619 28.4766 31.0098H27.4766ZM27.3444 31.5319C27.267 31.6148 27.176 31.6587 27.0308 31.6587V32.6587C27.4357 32.6587 27.7974 32.5122 28.0755 32.2142L27.3444 31.5319ZM27.0308 31.6587C26.8752 31.6587 26.7865 31.6127 26.7174 31.5385L25.9858 32.2203C26.2636 32.5184 26.6278 32.6587 27.0308 32.6587V31.6587ZM26.7212 31.5426C26.6656 31.4816 26.5913 31.3364 26.5913 31.0098H25.5913C25.5913 31.4618 25.6906 31.8963 25.982 32.2161L26.7212 31.5426Z" fill="#231F20"/>
</svg>
